<svg xmlns="http://www.w3.org/2000/svg" xmlns:xlink="http://www.w3.org/1999/xlink" viewBox="0 0 21.62 21"><defs><style>.cls-1{fill:url(#名称未設定グラデーション_185);}</style><linearGradient id="名称未設定グラデーション_185" x1="-654.44" y1="-637.49" x2="-669.7" y2="-654.5" gradientTransform="translate(673.35 659.42)" gradientUnits="userSpaceOnUse"><stop offset="0" stop-color="#ff90cd"/><stop offset="0.15" stop-color="#f693d0"/><stop offset="0.39" stop-color="#dc9dd8"/><stop offset="0.48" stop-color="#d1a1db"/><stop offset="0.83" stop-color="#88b9f4"/><stop offset="0.99" stop-color="#5fbffb"/></linearGradient></defs><g id="レイヤー_2" data-name="レイヤー 2"><g id="オブジェクト"><path class="cls-1" d="M2.31,4H0L1.15,2,2.31,0,3.46,2,4.62,4ZM19.62,7,18.46,5,17.31,3,16.15,5,15,7h4.62Zm-7.5-1.5L11,3.5l-1.15-2-1.16,2L7.5,5.5h4.62ZM6.62,11,5.46,9,4.31,7,3.15,9,2,11H6.62Zm15,3-1.16-2-1.15-2-1.16,2L17,14h4.62Zm-7.5-1.5L13,10.5l-1.15-2-1.16,2-1.15,2h4.62ZM4.62,18,3.46,16,2.31,14,1.15,16,0,18H4.62Zm15,3-1.16-2-1.15-2-1.16,2L15,21h4.62Zm-7.5-1.5L11,17.5l-1.15-2-1.16,2-1.15,2h4.62Z"/></g></g></svg>